# xmcd CD database file
#
# Track frame offsets:
#	150
#	13465
#	32617
#	46284
#	61925
#	75904
#	92406
#	103814
#	116847
#	130977
#	150703
#	159106
#	171868
#	187749
#	196255
#	205965
#	218902
#	232315
#	242379
#	255152
#	264991
#	276944
#	292011
#	302716
#
# Disc length: 4275 seconds
#
# Revision: 2
# Processed by: cddbd v1.5.2PL0 Copyright (c) Steve Scherf et al.
# Submitted via: CDex 1.70beta2
#
DISCID=4610b118
DTITLE=Boxcar Willie - The Best Of Boxcar Willie
DYEAR=1995
DGENRE=Country
TTITLE0=T For Texas
TTITLE1=Winds Of Yesterday
TTITLE2=Lonesome Whistle
TTITLE3=Wabash Cannonball
TTITLE4=You Are My Sunshine
TTITLE5=Thru A Boxcar Door
TTITLE6=Youth Of Yesterday
TTITLE7=In The Pines
TTITLE8=Boxcar Blues
TTITLE9=Danny Boy
TTITLE10=Daddy Was A Railroad Man
TTITLE11=Spirit Of America
TTITLE12=Old Kentucky Home
TTITLE13=America The Beautiful
TTITLE14=Hobo Till I Die
TTITLE15=Long Black Limousine
TTITLE16=Hank, You're Like Your Daddy
TTITLE17=Polly Woly Doodle
TTITLE18=Reflections Of An Old Man
TTITLE19=Jessie James Robbed Trains
TTITLE20=Woman You're Just Like Water
TTITLE21=White Line Fever
TTITLE22=Six Days On The Road
TTITLE23=How Great Thou Art
EXTD=YEAR: 1995
EXTT0=
EXTT1=
EXTT2=
EXTT3=
EXTT4=
EXTT5=
EXTT6=
EXTT7=
EXTT8=
EXTT9=
EXTT10=
EXTT11=
EXTT12=
EXTT13=
EXTT14=
EXTT15=
EXTT16=
EXTT17=
EXTT18=
EXTT19=
EXTT20=
EXTT21=
EXTT22=
EXTT23=
PLAYORDER=
